<svg width="171" height="45" viewBox="0 0 171 45" fill="none" xmlns="http://www.w3.org/2000/svg">
<g clip-path="url(#clip0)">
<path d="M32.8088 36.9883V41.6226C32.8088 42.5182 32.4576 43.3772 31.8325 44.0105C31.2074 44.6438 30.3596 44.9996 29.4755 44.9996H15.8046C14.9205 44.9996 14.0727 44.6438 13.4475 44.0105C12.8224 43.3772 12.4712 42.5182 12.4712 41.6226V36.2896C12.4712 35.8462 12.385 35.407 12.2175 34.9973C12.05 34.5876 11.8045 34.2153 11.4949 33.9017C11.1854 33.5881 10.8179 33.3394 10.4135 33.1697C10.0091 33 9.57565 32.9126 9.13791 32.9126H3.33333C2.44927 32.9126 1.60143 32.5568 0.976309 31.9235C0.351189 31.2902 0 30.4313 0 29.5356L0 16.084C0 15.1884 0.351189 14.3294 0.976309 13.6961C1.60143 13.0628 2.44927 12.707 3.33333 12.707H8.62067C8.75388 12.7077 8.8852 12.7391 9.00472 12.7987C9.12423 12.8583 9.22883 12.9446 9.31063 13.0511C9.39243 13.1577 9.44929 13.2816 9.47692 13.4136C9.50456 13.5456 9.50225 13.6823 9.47017 13.8133C9.30314 14.5502 9.48992 17.2048 10.176 19.2718C10.862 21.3388 12.5682 24.3664 13.5452 25.7602C14.5222 27.1539 17.2665 29.945 18.9511 31.3624C20.6357 32.7798 23.5686 34.4174 24.982 35.0287C26.3954 35.6401 28.7032 36.1204 30.492 36.2296C30.9013 36.2579 31.3123 36.2198 31.7097 36.1168C31.8403 36.0835 31.9767 36.0809 32.1084 36.1092C32.2402 36.1375 32.3638 36.1959 32.4698 36.28C32.5759 36.3641 32.6616 36.4716 32.7203 36.5944C32.7791 36.7171 32.8093 36.8519 32.8088 36.9883Z" fill="#56CCF2"/>
<path d="M45.2708 16.0117V29.3304C45.2708 30.2261 44.9196 31.085 44.2945 31.7183C43.6693 32.3516 42.8215 32.7074 41.9374 32.7074H36.8512C36.712 32.7074 36.5748 32.674 36.4507 32.6099C36.3266 32.5459 36.2192 32.4531 36.1373 32.339C36.0553 32.225 36.0012 32.0929 35.9792 31.9536C35.9572 31.8143 35.968 31.6717 36.0107 31.5375C36.1023 31.2752 36.1626 31.0028 36.1903 30.726C36.2532 29.798 35.0265 28.7027 32.9881 26.976C30.9497 25.2493 29.0944 24.7344 28.7801 24.7125C28.4658 24.6907 27.241 25.1128 26.8046 26.3501C26.5406 27.0997 25.9371 27.8421 25.4989 28.3115C25.3622 28.4603 25.1795 28.5575 24.981 28.5869C24.7825 28.6164 24.58 28.5763 24.4069 28.4734C23.3743 27.8566 21.2245 26.5011 19.9637 25.1983C18.7335 23.9247 17.5679 21.9651 17.0129 20.9734C16.9089 20.7883 16.8737 20.5715 16.9135 20.3624C16.9534 20.1532 17.0657 19.9653 17.2302 19.8326C17.6038 19.5397 18.1049 19.2122 18.861 18.71C20.0661 17.9094 20.5025 17.5309 20.7108 16.7504C20.9192 15.9698 19.9924 14.3286 18.5072 12.3071C17.0219 10.2857 15.6246 9.35409 14.8685 9.12301C14.5488 9.02476 14.1412 9.103 13.6832 9.30496C13.5491 9.36211 13.4031 9.38469 13.2583 9.37068C13.1134 9.35666 12.9743 9.30649 12.8533 9.22465C12.7323 9.1428 12.6332 9.03185 12.5649 8.9017C12.4966 8.77156 12.4612 8.6263 12.4619 8.47891V3.38429C12.461 2.93944 12.5468 2.49878 12.7144 2.08763C12.8821 1.67648 13.1283 1.30293 13.4389 0.988459C13.7494 0.673985 14.1183 0.424775 14.5242 0.255146C14.9301 0.0855178 15.3651 -0.00118718 15.8042 1.22765e-05H29.3764C30.2605 1.22765e-05 31.1083 0.355802 31.7334 0.989113C32.3585 1.62242 32.7097 2.48138 32.7097 3.37701V9.24856C32.7097 10.1442 33.0609 11.0031 33.686 11.6365C34.3112 12.2698 35.159 12.6256 36.0431 12.6256H41.9464C42.3842 12.6267 42.8174 12.7153 43.2214 12.8861C43.6253 13.0569 43.9921 13.3067 44.3008 13.6211C44.6095 13.9355 44.8541 14.3085 45.0205 14.7186C45.1869 15.1288 45.272 15.5682 45.2708 16.0117Z" fill="#56CCF2"/>
<path d="M50.2568 32.6429C50.2568 32.2293 50.8489 30.6869 52.0331 28.0159C53.2172 25.3449 54.5893 22.2814 56.1494 18.8256C57.7059 15.3685 58.7662 12.8989 59.3301 11.4166L60.0395 9.55158C59.7087 9.04637 59.3297 8.57528 58.908 8.1451C59.514 7.89682 60.16 7.76419 60.8136 7.75391C62.1701 7.75391 63.2244 8.62606 63.9763 10.3704C64.4552 11.4815 65.0904 13.9681 65.8818 17.8303C65.9265 17.9691 65.9589 18.1115 65.9788 18.2561C66.0219 18.4987 66.2422 19.605 66.6397 21.5749C67.0372 23.5448 67.312 24.8536 67.4641 25.5014C67.6137 26.1443 67.8717 27.1304 68.2381 28.4599C68.82 30.7076 69.5516 32.4525 70.4328 33.6946C69.4223 34.3011 68.5883 34.6043 67.931 34.6043C67.2737 34.6043 66.8001 34.4024 66.5104 33.9984C66.2218 33.5969 65.953 32.9759 65.704 32.1353C65.455 31.2947 64.9329 28.956 64.1379 25.1193C63.659 25.8592 62.7119 26.2516 61.2967 26.2965L55.5496 26.5257C54.3211 29.8821 53.4279 32.76 52.87 35.1593C51.1291 34.4206 50.258 33.5818 50.2568 32.6429ZM61.1692 12.4628C58.6943 18.4162 57.1127 22.2869 56.4242 24.0749H63.9134C62.9029 19.0809 61.9881 15.2102 61.1692 12.4628Z" fill="#504F4F"/>
<path d="M72.3399 31.6953C72.3184 31.3472 72.3076 30.7856 72.3076 30.0105C72.3076 29.2354 72.6668 25.9269 73.3852 20.0851C74.1036 14.2408 74.4628 10.2282 74.4628 8.04724C74.4628 5.86626 74.3365 4.44947 74.0838 3.79688C75.2883 4.25418 76.1384 4.92921 76.6341 5.82198C77.1298 6.71475 77.3771 7.79433 77.3759 9.0607C77.3759 10.3247 77.064 13.5955 76.4402 18.8733C75.8164 24.1511 75.5039 28.4027 75.5027 31.628C75.5027 32.3267 75.5458 33.308 75.632 34.572C74.4478 34.4846 73.6097 34.2014 73.1176 33.7223C72.7069 33.3305 72.4477 32.6548 72.3399 31.6953Z" fill="#504F4F"/>
<path d="M80.4435 31.6953C80.4219 31.3472 80.4111 30.7856 80.4111 30.0105C80.4111 29.2354 80.7703 25.9269 81.4887 20.0851C82.2071 14.2408 82.5663 10.2282 82.5663 8.04724C82.5663 5.86626 82.4376 4.44947 82.1802 3.79688C83.3846 4.25296 84.2347 4.92861 84.7304 5.8238C85.2261 6.719 85.4787 7.79857 85.4883 9.06252C85.4883 10.3265 85.1764 13.5973 84.5526 18.8751C83.9288 24.1529 83.6163 28.4045 83.6151 31.6298C83.6151 32.3285 83.6582 33.3099 83.7444 34.5738C82.5603 34.4865 81.7222 34.2032 81.2301 33.7241C80.8122 33.3311 80.55 32.6548 80.4435 31.6953Z" fill="#504F4F"/>
<path d="M94.5026 16.9207C95.8903 15.8411 97.3001 15.3013 98.7321 15.3013C100.164 15.3013 101.354 15.9393 102.301 17.2154C103.247 18.4915 103.72 20.2194 103.721 22.3992C103.745 24.6976 103.284 26.9746 102.371 29.0786C101.358 31.3469 99.8941 32.9281 97.9796 33.822C96.9072 34.3305 95.735 34.5862 94.5511 34.5699C92.809 34.5699 91.2812 33.8342 89.9678 32.3628C88.6543 30.8914 87.9958 28.7869 87.9922 26.0491C87.9922 23.3126 88.5735 20.9412 89.7361 18.9349C90.8987 16.9286 92.4803 15.5336 94.481 14.75C94.9121 14.75 95.1276 14.9683 95.1276 15.405C92.9976 16.8218 91.6847 19.0458 91.189 22.0771C92.0104 19.7239 93.1149 18.0051 94.5026 16.9207ZM100.557 23.3308C100.557 21.2056 100.293 19.6796 99.7648 18.7529C99.2368 17.8262 98.4836 17.3628 97.5054 17.3628C96.5272 17.3628 95.5425 17.848 94.5511 18.8184C93.5317 19.8377 92.7361 21.0634 92.2163 22.4156C91.6488 23.8281 91.3585 25.3392 91.3614 26.8643C91.3614 28.4011 91.6518 29.7312 92.2325 30.8544C92.8132 31.9777 93.6956 32.5387 94.8797 32.5375C96.556 32.5375 97.9227 31.5349 98.9799 29.5298C100.005 27.6305 100.547 25.5026 100.557 23.3381V23.3308Z" fill="#504F4F"/>
<path d="M117.214 7.85209C120.185 7.85209 122.519 9.04023 124.218 11.4165C125.917 13.7928 126.768 16.7798 126.77 20.3776C126.77 24.042 125.791 27.2692 123.832 30.0592C122.85 31.4635 121.534 32.5943 120.007 33.347C118.468 34.147 116.765 34.5661 115.036 34.5697C113.511 34.597 111.99 34.4134 110.515 34.0239C109.214 33.66 108.272 33.2894 107.69 32.9121L106.792 32.3663C106.814 32.1916 107.053 30.5668 107.51 27.4918C108.457 21.0823 108.93 15.2714 108.929 10.0591C108.929 8.33547 108.779 7.11458 108.478 6.39648C110.264 7.00299 111.383 7.96247 111.835 9.27494C113.744 8.32516 115.537 7.85088 117.214 7.85209ZM110.531 31.7931C111.649 32.146 112.816 32.3119 113.987 32.2844C115.368 32.2777 116.724 31.9111 117.925 31.22C119.161 30.5423 120.214 29.5684 120.993 28.3834C122.582 26.0144 123.416 23.2089 123.383 20.3448C123.383 17.3596 122.725 14.9506 121.408 13.1177C120.091 11.2849 118.327 10.3691 116.117 10.3703C114.632 10.3703 113.341 10.6208 112.243 11.1217C112.243 12.4742 111.958 15.8761 111.388 21.3273C110.818 26.7786 110.532 30.2672 110.531 31.7931Z" fill="#504F4F"/>
<path d="M146.174 31.3185C145.212 32.4254 144.029 33.3118 142.702 33.9186C141.275 34.5822 139.721 34.9178 138.151 34.9011C136.62 34.9306 135.112 34.5226 133.8 33.7239C132.555 32.9537 131.526 31.8723 130.813 30.5835C129.327 27.9233 128.585 24.8817 128.586 21.4586C128.587 18.0355 129.416 14.9879 131.072 12.3156C132.73 9.64702 134.885 7.88816 137.537 7.03906C137.903 7.1264 138.108 7.30107 138.151 7.56308C136.729 8.42424 135.476 9.54377 134.455 10.8655C133.497 12.1319 132.835 13.844 132.469 16.0019C133.372 13.4546 134.781 11.4483 136.698 9.98302C138.615 8.51771 140.622 7.78991 142.718 7.79962C144.817 7.79962 146.604 8.70937 148.078 10.5289C149.552 12.3484 150.289 14.9812 150.29 18.4273C150.29 21.7849 149.698 24.8265 148.514 27.5522C147.926 28.9199 147.137 30.1897 146.174 31.3185ZM145.174 12.372C144.204 10.9164 142.89 10.1886 141.233 10.1886C139.576 10.1886 138.048 10.8558 136.65 12.1901C135.215 13.5776 134.12 15.2862 133.453 17.1792C132.733 19.1336 132.364 21.2029 132.363 23.2891C132.363 26.102 132.874 28.4134 133.897 30.2232C134.919 32.033 136.45 32.9361 138.489 32.9324C140.147 32.9324 141.611 32.2459 142.88 30.8728C144.198 29.4149 145.164 27.6682 145.705 25.769C146.326 23.6909 146.636 21.5302 146.625 19.3589C146.625 16.1566 146.141 13.8276 145.174 12.372Z" fill="#504F4F"/>
<path d="M160.863 34.5707C158.469 34.5707 156.456 33.5894 154.825 31.6267C153.195 29.6641 152.377 26.8074 152.372 23.0568C152.372 20.29 152.813 17.7663 153.696 15.4859C154.535 13.265 155.972 11.3272 157.844 9.89272C159.667 8.45978 161.913 7.69063 164.22 7.70932C166.587 7.70932 168.309 8.29217 169.385 9.45786C170.462 10.6236 171.001 11.9579 171.002 13.4608C171.002 14.9661 170.625 16.1712 169.872 17.0761C169.517 17.5146 169.068 17.865 168.558 18.1003C168.049 18.3355 167.493 18.4495 166.934 18.4335C166.45 18.4165 165.972 18.3282 165.513 18.1715C166.082 17.5256 166.526 16.7768 166.821 15.9644C167.187 15.0613 167.379 14.0951 167.385 13.1187C167.408 12.2327 167.14 11.3639 166.625 10.6478C166.121 9.96126 165.319 9.61798 164.22 9.61798C162.562 9.61798 161.083 10.3106 159.782 11.6959C158.438 13.1494 157.434 14.8906 156.844 16.7905C156.188 18.8002 155.855 20.9037 155.858 23.0205C155.858 26.0299 156.429 28.2812 157.57 29.7745C158.711 31.2677 160.186 32.0173 161.997 32.0234C163.202 32.0234 164.44 31.6528 165.709 30.9116C167.01 30.1371 168.09 29.0321 168.841 27.7057C169.163 27.7072 169.477 27.8102 169.739 28.0004C170.019 28.1969 170.159 28.3916 170.159 28.5881C168.953 30.9001 167.435 32.5031 165.607 33.3971C164.135 34.1504 162.512 34.5518 160.863 34.5707Z" fill="#504F4F"/>
</g>
<defs>
<clipPath id="clip0">
<rect width="171" height="45" fill="white"/>
</clipPath>
</defs>
</svg>
